<svg width="500" height="500" viewBox="0 0 500 500" fill="none" xmlns="http://www.w3.org/2000/svg">
<path d="M119.077 239.886L132.334 232.232C130.948 227.021 128.874 222.093 126.223 217.541L111.46 221.497L100.397 210.434L104.34 195.717C99.7761 193.075 94.8391 191.009 89.6171 189.637L82.0081 202.817H66.3631L58.7921 189.704C53.5671 191.1 48.6271 193.185 44.0671 195.852L47.9741 210.434L36.9101 221.497L22.3811 217.604C19.7251 222.178 17.6481 227.129 16.2681 232.366L29.2921 239.886V255.532L16.2721 263.049C17.6531 268.286 19.7311 273.237 22.3901 277.811L36.9091 273.92L47.9721 284.983L44.0701 299.55C48.6321 302.218 53.5741 304.304 58.8001 305.699L66.3621 292.601H82.0081L89.6081 305.765C94.8321 304.393 99.7711 302.327 104.336 299.685L100.397 284.984L111.46 273.921L126.214 277.874C128.867 273.322 130.942 268.394 132.33 263.183L119.077 255.531V239.886ZM74.3021 280.157C56.3771 280.157 41.8471 265.626 41.8471 247.702C41.8471 229.778 56.3781 215.247 74.3021 215.247C92.2271 215.247 106.757 229.778 106.757 247.702C106.757 265.626 92.2261 280.157 74.3021 280.157Z" fill="#F5F5F5"/>
<path d="M275.618 448.234C390.555 448.234 483.73 436.391 483.73 421.782C483.73 407.173 390.555 395.33 275.618 395.33C160.681 395.33 67.5059 407.173 67.5059 421.782C67.5059 436.391 160.681 448.234 275.618 448.234Z" fill="#D6C0B3"/>
<path d="M118.731 247.701V232.787C118.731 225.939 125.287 220.388 133.374 220.388H285.104L295.692 201.859C297.003 199.564 299.749 198.106 302.76 198.106H338.369C342.705 198.106 346.221 201.083 346.221 204.754V397.695C346.052 399.53 345.292 405.186 340.685 409.983C334.3 416.632 325.706 416.237 324.418 416.157H118.731V247.701Z" fill="#493628"/>
<path d="M288.808 239.309L266.782 216.036L263.929 229.14L240.616 205.341L235.618 217.568L218.311 196.223L203.447 204.418L190.535 182.119L176.424 193.372L157.953 172.659C172.154 141.527 189.135 118.156 202.442 102.382C248.482 121.201 294.523 140.02 340.563 158.84C327.152 181.95 313.23 209.066 300.36 240.077L288.808 239.309Z" fill="#F5F5F5"/>
<path d="M191.614 186.926L204.526 209.225L219.39 201.03L236.697 222.375L241.695 210.148L265.007 233.947L267.86 220.843L289.886 244.116L301.437 244.883C301.265 245.298 301.091 245.706 300.919 246.123C287.183 279.404 277.45 310.433 270.455 337.799L132.334 281.341C134.084 258.159 139.292 224.306 155.077 186.509C156.366 183.423 157.687 180.412 159.031 177.465L177.503 198.178L191.614 186.926Z" fill="#F5F5F5"/>
<path d="M300.359 240.075L288.808 239.309L266.782 216.035L263.929 229.139L240.617 205.34L235.618 217.567L218.311 196.222" stroke="#262626" stroke-width="0.274" stroke-miterlimit="10" stroke-linecap="round" stroke-linejoin="round"/>
<path d="M301.438 244.883L289.887 244.116L267.861 220.843L265.008 233.947L241.696 210.147L236.698 222.375L219.391 201.03" stroke="#262626" stroke-width="0.274" stroke-miterlimit="10" stroke-linecap="round" stroke-linejoin="round"/>
<path d="M64.213 128.715C60.574 129.481 58.246 133.052 59.012 136.691C67.464 161.198 75.636 189.192 82.32 220.367C89.448 253.61 93.559 284.29 95.822 311.492C95.915 311.931 96.45 314.256 98.732 315.744C100.175 316.685 101.978 317.076 103.797 316.693L231.101 289.885C234.74 289.119 237.068 285.548 236.302 281.909C234.689 256.64 230.973 227.292 223.378 195.195C218.19 173.273 211.995 153.457 205.556 135.903C190.835 126.686 176.113 117.468 161.392 108.251L64.213 128.715Z" fill="#F5F5F5"/>
<path d="M173.151 142.727L205.557 135.903L161.393 108.251L167.937 139.327C168.437 141.705 170.772 143.228 173.151 142.727Z" fill="#D6D6D6"/>
<path d="M161.392 108.251L167.936 139.327C168.437 141.706 170.772 143.229 173.151 142.728L205.557 135.904" stroke="#262626" stroke-width="0.274" stroke-miterlimit="10" stroke-linecap="round" stroke-linejoin="round"/>
<path d="M148.256 229.675C147.318 225.222 146.903 221.564 147.01 218.704C147.117 215.844 147.913 213.075 149.399 210.397C150.245 208.8 151.282 207.36 152.51 206.076C153.737 204.794 154.839 203.477 155.817 202.128C156.793 200.781 157.553 199.338 158.099 197.804C158.643 196.27 158.686 194.41 158.224 192.22C157.445 188.523 155.882 186.151 153.534 185.108C151.186 184.065 148.614 183.838 145.823 184.426C141.821 185.269 139.301 186.964 138.261 189.507C137.219 192.052 136.908 195.252 137.326 199.105L122.721 202.181C121.942 198.483 121.838 194.997 122.41 191.723C122.981 188.45 124.158 185.522 125.94 182.939C127.721 180.358 130.059 178.17 132.954 176.377C135.846 174.585 139.181 173.292 142.956 172.497C151.108 170.78 157.892 171.087 163.31 173.414C168.726 175.743 172.222 180.642 173.796 188.115C174.305 190.532 174.504 192.696 174.396 194.611C174.286 196.526 173.895 198.323 173.225 200.001C172.553 201.68 171.635 203.312 170.472 204.897C169.307 206.483 167.963 208.145 166.438 209.885C165.047 211.519 163.958 212.99 163.169 214.298C162.381 215.608 161.848 216.923 161.575 218.24C161.301 219.56 161.227 220.896 161.355 222.248C161.481 223.602 161.721 225.109 162.071 226.768L148.256 229.675ZM152.405 251.623L149.281 236.791L164.566 233.572L167.69 248.404L152.405 251.623Z" fill="#493628"/>
<path d="M64.213 128.715C60.574 129.481 58.246 133.052 59.012 136.691C67.464 161.198 75.636 189.192 82.32 220.367C89.448 253.61 93.559 284.29 95.822 311.492C95.915 311.931 96.45 314.256 98.732 315.744C100.175 316.685 101.978 317.076 103.797 316.693L231.101 289.885C234.74 289.119 237.068 285.548 236.302 281.909C234.689 256.64 230.973 227.292 223.378 195.195C218.19 173.273 211.995 153.457 205.556 135.903C190.835 126.686 176.113 117.468 161.392 108.251L64.213 128.715Z" stroke="#262626" stroke-width="0.274" stroke-miterlimit="10" stroke-linecap="round" stroke-linejoin="round"/>
<path d="M77.0391 247.701H300.466C306.3 247.701 311.855 252.43 312.874 258.265L338.595 405.595C339.614 411.429 335.71 416.158 329.876 416.158H106.449C100.615 416.158 95.0601 411.429 94.0411 405.595L68.3201 258.265C67.3021 252.431 71.2051 247.701 77.0391 247.701Z" fill="#493628"/>
<path d="M347.794 145.141L357.26 142.114L372.417 146.47L372.027 148.649H361.82L355.821 154.634L350.597 155.673L347.794 145.141Z" fill="#F7A99C"/>
<path d="M356.165 144.254C358.756 142.819 365.335 139.663 373.133 141.197C375.529 141.668 379.921 142.532 382.687 146.242C384.171 148.232 384.58 150.226 384.903 151.898C385.834 156.707 384.24 158.626 384.215 166.65C384.206 169.653 384.425 170.814 385.132 171.924C386.502 174.072 388.227 173.707 391.17 175.746C391.58 176.03 395.735 178.985 397.437 184.001C398.656 187.592 397.385 188.608 398.813 190.574C401.017 193.61 404.85 192.299 406.762 194.854C408.987 197.829 406.472 203.187 406.15 203.873C400.046 216.878 361.548 223.137 344.927 206.319C344.348 205.733 334.809 195.884 337.59 189.045C339.192 185.107 344.315 183.553 344.316 178.956C344.316 176.963 343.353 176.856 342.864 173.453C342.515 171.025 342.044 167.752 343.705 165.122C345.638 162.061 348.821 162.466 349.376 160.003C349.811 158.072 348.031 157.039 347.692 154.98C347.326 152.751 348.651 149.356 356.165 144.254Z" fill="#262626"/>
<path d="M381.96 145.897C384.091 147.969 386.585 151.114 387.119 155.26C387.868 161.071 384.109 163.744 385.743 167.84C387.243 171.6 390.809 170.343 395.526 175.668C396.996 177.327 400.213 180.959 400.876 186.139C401.43 190.468 399.839 193.061 401.64 194.7C401.64 194.7 402.21 195.218 407.423 196.193" stroke="#262626" stroke-width="0.5" stroke-miterlimit="10" stroke-linecap="round" stroke-linejoin="round"/>
<path d="M347.294 162.209C344.747 163.344 341.495 165.314 340.496 168.636C339.296 172.628 342.56 174.553 341.872 179.107C340.967 185.104 334.157 185.561 334.305 191.183C334.381 194.087 335.347 196.548 338.585 200.814C341.259 204.337 344.277 205.969 344.929 206.317C346.037 206.91 347.027 207.294 347.758 207.54" stroke="#262626" stroke-width="0.5" stroke-miterlimit="10" stroke-linecap="round" stroke-linejoin="round"/>
<path d="M347.294 143.26C323.117 143.373 305.426 153.604 303.961 164.631C302.49 175.704 317.342 187.873 323.528 192.942C330.125 198.348 336.467 201.621 340.876 203.556L359.552 183.69L330.101 168.048L351.36 158.54L347.294 143.26Z" fill="#705C53"/>
<path d="M372.937 183.69C370.944 183.69 368.951 183.69 366.958 183.69C364.489 183.69 362.021 183.69 359.552 183.69C355.858 185.875 350.534 189.703 346.261 196.014C341.314 203.321 340.009 210.657 339.104 220.49C338.1 231.399 337.67 247.26 339.33 266.09L406.618 265.547C406.618 253.924 406.618 242.301 406.618 230.679C406.29 221.88 405.253 214.644 404.273 209.37C402.689 200.847 401.392 198.194 399.991 196.116C396.013 190.22 390.326 187.68 387.756 186.532C381.744 183.848 376.238 183.572 372.937 183.69Z" fill="#FFC001"/>
<path d="M366.245 189.113C370.008 189.127 373.07 186.089 373.084 182.326L373.14 167.664L359.513 167.612L359.457 182.274C359.443 186.036 362.482 189.098 366.245 189.113Z" fill="#F7A99C"/>
<path d="M359.473 178.169L368.348 173.61C368.258 174.378 367.754 177.978 364.588 180.464C362.567 182.051 360.443 182.414 359.462 182.517L359.473 178.169Z" fill="#FF7769"/>
<path d="M373.471 163.121C373.514 162.9 374.098 162.565 374.277 162.45C374.58 162.256 374.908 162.102 375.25 161.992C375.915 161.778 376.645 161.728 377.329 161.885C378.688 162.196 379.892 163.338 380.118 164.736C380.249 165.548 380.062 166.388 379.714 167.134C379.191 168.255 378.303 169.197 377.232 169.814C376.344 170.326 375.333 170.615 374.311 170.676C374.106 170.688 372.012 170.64 372.028 170.559C372.508 168.079 372.99 165.6 373.471 163.121Z" fill="#F7A99C"/>
<path d="M375.339 163.263C375.178 164.357 374.216 170.127 369.015 174.204C368.057 174.955 361.687 179.948 355.86 177.511C348.372 174.38 349.188 162.08 349.241 161.414C349.419 159.162 349.945 152.529 355.438 148.99C359.921 146.102 364.779 147.164 365.467 147.326C366.193 147.497 370.817 148.663 373.647 153.198C376.216 157.313 375.603 161.473 375.339 163.263Z" fill="#F7A99C"/>
<path d="M353.491 161.422C353.37 162.382 352.63 163.08 351.837 162.98C351.044 162.88 350.499 162.021 350.62 161.061C350.741 160.101 351.481 159.403 352.274 159.502C353.067 159.603 353.612 160.462 353.491 161.422Z" fill="#262626"/>
<path d="M362.144 162.509C362.023 163.469 361.283 164.167 360.49 164.067C359.697 163.967 359.152 163.108 359.273 162.148C359.394 161.188 360.134 160.49 360.927 160.59C361.72 160.69 362.265 161.549 362.144 162.509Z" fill="#262626"/>
<path d="M356.104 162.859L354.777 164.651C354.533 164.98 354.625 165.448 354.975 165.661L356.193 166.403" stroke="#262626" stroke-width="0.7131" stroke-miterlimit="10" stroke-linecap="round" stroke-linejoin="round"/>
<path d="M365.047 167.032C364.912 168.109 363.929 168.873 362.851 168.738C361.774 168.603 361.01 167.62 361.145 166.542C361.28 165.465 362.263 164.701 363.341 164.836C364.418 164.971 365.182 165.955 365.047 167.032Z" fill="#FF7769"/>
<path d="M374.385 168.048C374.379 167.832 374.36 166.369 375.534 165.313C376.454 164.486 377.524 164.432 377.815 164.427" stroke="#262626" stroke-width="0.7131" stroke-miterlimit="10" stroke-linecap="round" stroke-linejoin="round"/>
<path d="M375.421 165.602C375.486 165.592 376.273 165.483 376.823 166.077C377.275 166.566 377.234 167.171 377.225 167.272" stroke="#262626" stroke-width="0.7131" stroke-miterlimit="10" stroke-linecap="round" stroke-linejoin="round"/>
<path d="M350.261 163.923C349.888 163.876 349.53 163.943 349.211 164.087C349.249 165.143 349.35 166.423 349.582 167.781C349.645 167.795 349.706 167.816 349.771 167.824C350.849 167.959 351.832 167.196 351.967 166.118C352.102 165.041 351.339 164.058 350.261 163.923Z" fill="#FF7769"/>
<path d="M347.889 153.19C347.629 154.018 347.562 154.933 347.873 155.744C348.183 156.553 348.872 157.208 349.696 157.476C350.748 157.818 352.014 157.546 352.667 156.617C352.667 156.617 352.982 157.248 353.871 157.448C354.755 157.648 355.753 156.627 355.762 156.617C355.723 156.658 356.57 157.26 356.66 157.287C356.927 157.366 357.218 157.315 357.477 157.212C357.622 157.155 358.656 156.723 358.657 156.531C358.654 157.213 360.05 156.877 360.315 156.694C360.482 156.579 361.128 156.107 361.128 155.872C361.128 155.872 361.093 157.133 361.896 157.276C362.698 157.419 363.931 156.187 363.931 156.187C363.931 156.187 364.447 157.391 364.934 157.419C365.421 157.448 366.568 156.444 366.568 156.444C366.568 156.444 366.683 156.616 367.256 157.132C367.829 157.648 368.947 156.444 368.947 156.444L373.361 164.126C373.361 164.126 373.304 163.058 373.963 162.589C374.622 162.12 375.51 161.918 375.51 161.918C375.741 161.678 375.781 160.84 375.834 160.515C375.918 160.002 375.966 159.483 375.972 158.963C375.983 158.022 375.86 157.074 375.583 156.174C375.04 154.409 373.951 152.858 372.721 151.502C370.132 148.648 366.718 146.404 362.932 145.543C361.612 145.243 360.252 145.103 358.899 145.149C356.95 145.216 355.15 145.895 353.47 146.877C351.035 148.301 348.777 150.409 347.889 153.19Z" fill="#262626"/>
<path d="M356.05 170.677L360.445 169.63C360.179 168.393 358.993 167.603 357.846 167.796C356.594 168.006 355.706 169.334 356.05 170.677Z" fill="white"/>
<path d="M388.828 220.277C378.448 236.566 367.293 244.22 359.108 248.18C342.097 256.411 310.846 261.79 307.124 263.874C305.806 264.612 305.041 264.704 303.512 264.887C302.973 264.952 302.099 265.015 301.359 264.508C301.155 264.368 300.804 264.127 300.702 263.714C300.526 262.998 301.172 262.066 301.172 262.066C301.017 262.183 300.513 262.536 299.791 262.522C299.584 262.518 298.854 262.474 298.36 261.943C297.79 261.33 297.728 260.277 298.251 259.366C297.254 260.294 295.893 260.287 295.236 259.622C294.813 259.193 294.585 258.393 294.891 257.703C295.105 257.222 295.497 256.977 295.661 256.887C295.294 256.99 294.295 257.214 293.332 256.713C293.059 256.571 292.608 256.337 292.401 255.835C292.094 255.093 292.55 254.323 292.634 254.182C293.086 253.42 293.857 253.15 295.181 252.724C297.905 251.847 300.839 251.006 300.839 251.006L295.528 248.849C294.829 248.168 294.526 247.225 294.8 246.495C295.195 245.442 296.811 244.783 298.324 245.557C301.762 246.396 305.2 247.235 308.637 248.073C308.637 248.073 312.032 248.775 314.871 248.311C317.71 247.847 338.77 235.805 342.932 232.614C347.094 229.423 365.084 212.545 365.084 212.545L388.828 220.277Z" fill="#F7A99C"/>
<path d="M343.915 266.09C343.915 266.09 326.481 324.069 325.462 332.429C324.442 340.789 332.293 406.244 332.293 406.244H356.252L368.894 341.401C368.894 341.401 370.525 353.024 378.274 361.18C386.023 369.336 414.366 397.476 414.366 397.476L432.31 379.94L410.696 340.382C409.472 331.976 408.828 324.861 408.463 319.517C407.887 311.076 407.599 306.855 408.027 301.858C408.897 291.71 411.168 289.965 410.985 283.058C410.873 278.832 409.846 272.803 405.512 265.547C384.98 265.728 364.447 265.909 343.915 266.09Z" fill="#AB886D"/>
<path d="M354.485 406.244V430.577H315.47L316.49 423.576C316.49 423.576 328.724 416.711 330.628 415.148C332.531 413.585 334.57 410.526 334.978 409.574C335.386 408.622 334.978 406.243 334.978 406.243L354.485 406.244Z" fill="#F7A99C"/>
<path d="M356.456 415.42C355.98 415.288 355.261 415.166 354.485 415.386C352.49 415.953 351.966 418.264 351.104 419.498L328.725 419.753C328.772 418.619 328.819 417.484 328.865 416.35C327.7 415.972 326.536 415.594 325.371 415.216C322.931 417.938 320.557 419.518 318.764 420.473C316.01 421.94 312.439 423.099 310.985 425.581C310.279 426.785 310.244 428.009 310.24 428.235C310.229 428.866 310.214 429.751 310.849 430.339C311.321 430.777 311.926 430.839 312.208 430.849C326.652 430.758 341.095 430.668 355.539 430.577C356.046 430.577 356.457 430.166 356.457 429.66V415.42H356.456Z" fill="#FF7129"/>
<path d="M312.158 433.364H354.734C355.685 433.364 356.455 432.593 356.455 431.643V429.734H310.437V431.643C310.437 432.593 311.208 433.364 312.158 433.364Z" fill="#5D1113"/>
<path opacity="0.5" d="M348.945 251.38L349.19 261.164C352.061 259.739 354.959 258.273 357.884 256.764C360.773 255.274 363.613 253.781 366.405 252.288C366.405 249.653 366.405 247.017 366.405 244.382L348.945 251.38Z" fill="#E5A300"/>
<path d="M431.914 380.328L448.9 397.751L420.965 424.986L416.808 419.262C416.808 419.262 420.776 405.806 421.048 403.358C421.319 400.91 420.644 397.297 420.272 396.33C419.9 395.364 417.947 393.945 417.947 393.945L431.914 380.328Z" fill="#F7A99C"/>
<path d="M439.731 385.522C439.298 385.76 438.698 386.174 438.296 386.874C437.263 388.673 438.501 390.694 438.745 392.179L422.899 407.984C422.141 407.139 421.382 406.294 420.624 405.449C419.526 405.992 418.428 406.534 417.331 407.076C417.484 410.729 416.887 413.516 416.27 415.452C415.322 418.425 413.574 421.748 414.266 424.54C414.602 425.895 415.43 426.796 415.585 426.96C416.018 427.419 416.624 428.063 417.49 428.041C418.134 428.025 418.61 427.648 418.819 427.457C429.098 417.31 439.376 407.162 449.655 397.014C450.018 396.66 450.025 396.079 449.672 395.716L439.731 385.522Z" fill="#FF7129"/>
<path d="M420.539 429.293L451.025 399.572C451.706 398.908 451.719 397.819 451.056 397.138L449.723 395.771L416.772 427.895L418.105 429.262C418.769 429.943 419.858 429.957 420.539 429.293Z" fill="#5D1113"/>
<path d="M294.992 248.134C295.385 248.402 295.895 248.729 296.508 249.073C297.599 249.686 298.565 250.098 299.267 250.366C300.209 250.725 301.427 251.11 302.883 251.38" stroke="#262626" stroke-width="0.5" stroke-miterlimit="10" stroke-linecap="round" stroke-linejoin="round"/>
<path d="M293.843 256.908C293.843 256.908 294.333 257.171 295.661 256.886C296.989 256.601 298.376 255.831 298.376 255.831" stroke="#262626" stroke-width="0.5" stroke-miterlimit="10" stroke-linecap="round" stroke-linejoin="round"/>
<path d="M296.719 260.079C296.719 260.079 297.233 259.964 298.496 259.383C299.759 258.802 300.93 258.009 300.93 258.009" stroke="#262626" stroke-width="0.5" stroke-miterlimit="10" stroke-linecap="round" stroke-linejoin="round"/>
<path d="M300.329 262.463C300.329 262.463 301.395 262.026 302.007 261.667C302.618 261.308 303.303 260.688 303.303 260.688" stroke="#262626" stroke-width="0.5" stroke-miterlimit="10" stroke-linecap="round" stroke-linejoin="round"/>
<path d="M364.667 299.606C364.667 299.606 352.132 347.453 351.368 359.835C350.604 372.217 347.241 406.244 347.241 406.244H356.253L368.895 341.401L364.667 299.606Z" fill="#AB886D"/>
<path d="M374.363 356.05C372.562 352.827 370.211 347.848 368.894 341.401C368.626 340.088 368.512 339.259 367.762 331.555C366.757 321.236 365.994 312.782 365.951 312.303C365.664 309.12 365.224 304.29 364.667 298.307C364.667 298.307 363.903 286.46 363.52 280.345" stroke="#262626" stroke-width="0.5" stroke-miterlimit="10" stroke-linecap="round" stroke-linejoin="round"/>
<path d="M390.348 265.547C390.348 265.547 393.329 323.071 394.705 329.95C396.081 336.829 399.581 351.963 405.512 359.759C411.443 367.555 424.877 387.189 424.877 387.189" stroke="#262626" stroke-width="0.5" stroke-miterlimit="10" stroke-linecap="round" stroke-linejoin="round"/>
<path d="M364.433 300.502C364.433 300.502 352.98 347.366 352.173 353.601C351.367 359.835 347.239 406.244 347.239 406.244" stroke="#262626" stroke-width="0.5" stroke-miterlimit="10" stroke-linecap="round" stroke-linejoin="round"/>
<path d="M431.914 380.328L417.947 393.945L419.6 395.387L434.107 382.577L431.914 380.328Z" fill="#FF7769"/>
<path d="M354.485 406.244H334.977L335.148 408.675H354.485V406.244Z" fill="#FF7769"/>
<path d="M359.552 183.69C359.552 183.69 351.984 211.592 350.597 221.834C349.21 232.076 349.191 270.293 349.191 270.293H336.063C335.55 264.516 332.938 233.151 338.758 210.37C341.617 199.178 345.628 193.513 349.821 189.733C353.435 186.474 357.12 184.673 359.552 183.69Z" fill="#705C53"/>
<path opacity="0.5" d="M335.492 262.463C337.533 262.735 340.219 262.885 343.323 262.496C345.618 262.209 347.594 261.695 349.189 261.163C349.231 258.704 349.273 256.244 349.314 253.785L335.034 259.337L335.492 262.463Z" fill="#705C53"/>
<path d="M416.47 273.808C412.228 241.753 407.507 217.477 404.317 205.859C403.065 201.299 400.917 194.566 394.969 189.854C391.334 186.974 387.274 185.635 385.743 185.146C380.43 183.446 375.789 183.461 372.935 183.69C372.935 183.69 367.286 198.002 367.188 203.496C362.387 210.674 355.153 219.625 344.622 227.948C333.044 237.098 321.762 242.108 313.896 244.883L317.718 265.547C317.718 265.547 349.74 254.547 366.499 246.403C366.285 259.772 366.106 271.056 366.106 271.056L416.47 273.808Z" fill="#705C53"/>
<path opacity="0.5" d="M366.405 252.287L366.499 246.403C378.312 240.328 385.103 233.083 388.61 228.674C393.453 222.586 397.115 215.521 398.656 212.548C400.732 208.542 402.253 205.059 403.299 202.492C404.294 206.262 405.289 210.032 406.284 213.802C403.947 219.299 399.35 228.189 390.674 236.699C381.561 245.639 372.073 250.112 366.405 252.287Z" fill="#705C53"/>
<path d="M403.019 203.556C403.019 203.556 396.578 217.832 390.729 226.216C386.617 232.11 379.499 239.823 366.499 246.403C359.427 249.589 352.001 252.749 344.224 255.835C335.095 259.458 326.24 262.679 317.718 265.546" stroke="#262626" stroke-width="0.5" stroke-miterlimit="10" stroke-linecap="round" stroke-linejoin="round"/>
<path d="M383.993 184.641C382.584 184.725 380.46 185.059 378.407 186.368C375.949 187.936 374.916 190.057 373.362 192.941C372.03 195.414 370.002 199.029 367.189 203.495C364.503 207.157 353.237 222.2 339.401 231.819C333.684 235.793 328.673 238.378 328.673 238.378C321.984 241.827 313.897 244.882 313.897 244.882" stroke="#262626" stroke-width="0.5" stroke-miterlimit="10" stroke-linecap="round" stroke-linejoin="round"/>
<path d="M342.741 199.233C342.741 199.233 340.78 202.81 339.538 207.541C338.296 212.271 337.29 217.222 337.29 217.222" stroke="#262626" stroke-width="0.5" stroke-miterlimit="10" stroke-linecap="round" stroke-linejoin="round"/>
<path d="M359.552 183.69L326.126 165.874" stroke="#262626" stroke-width="0.5" stroke-miterlimit="10" stroke-linecap="round" stroke-linejoin="round"/>
<path d="M324.445 152.432C322.116 152.712 316.145 153.77 311.757 158.7C310.517 160.093 308.455 162.409 308.088 165.874C307.397 172.395 313.338 177.042 313.897 177.465" stroke="white" stroke-width="0.5" stroke-miterlimit="10" stroke-linecap="round" stroke-linejoin="round"/>
<path d="M404.547 226.037L409.362 262.732" stroke="#262626" stroke-width="0.5" stroke-miterlimit="10" stroke-linecap="round" stroke-linejoin="round"/>
<path d="M195.964 349.213C195.136 344.471 194.831 340.653 195.049 337.76C195.267 334.867 196.21 332.214 197.879 329.804C198.832 328.357 199.98 327.112 201.326 326.067C202.67 325.023 203.883 323.918 204.967 322.752C206.048 321.588 206.905 320.281 207.537 318.834C208.168 317.387 208.282 315.5 207.874 313.168C207.186 309.231 205.62 306.477 203.177 304.91C200.733 303.343 198.023 302.559 195.051 302.559C190.79 302.559 188.064 303.746 186.871 306.116C185.676 308.487 185.23 311.682 185.53 315.701H169.98C169.292 311.764 169.31 308.187 170.035 304.971C170.759 301.757 172.111 299.024 174.089 296.773C176.066 294.524 178.618 292.795 181.744 291.589C184.867 290.383 188.439 289.78 192.459 289.78C201.139 289.78 208.299 291.549 213.94 295.085C219.58 298.623 223.096 304.368 224.485 312.325C224.934 314.898 225.065 317.147 224.881 319.076C224.694 321.005 224.215 322.753 223.446 324.32C222.674 325.887 221.644 327.354 220.356 328.72C219.067 330.087 217.585 331.493 215.909 332.94C214.379 334.307 213.174 335.573 212.292 336.737C211.41 337.903 210.799 339.129 210.463 340.414C210.125 341.7 209.998 343.048 210.083 344.453C210.167 345.86 210.365 347.448 210.674 349.215H195.964V349.213ZM199.546 372.481L196.788 356.688H213.063L215.821 372.481H199.546Z" fill="white"/>
<path d="M40.073 433.459C39.255 430.383 41.085 427.227 44.161 426.409L123.646 405.27L126.608 416.408L47.123 437.547C44.047 438.365 40.891 436.534 40.073 433.459Z" fill="#AB886D"/>
<path opacity="0.5" d="M200.131 404.932C205.224 383.741 192.175 362.434 170.984 357.341C149.794 352.247 128.486 365.297 123.393 386.487C118.3 407.678 131.349 428.985 152.54 434.078C173.73 439.172 195.038 426.122 200.131 404.932Z" fill="#CDEBF5"/>
<path d="M161.766 351.618C137.416 351.618 117.677 371.357 117.677 395.707C117.677 420.056 137.416 439.796 161.766 439.796C186.116 439.796 205.855 420.057 205.855 395.707C205.854 371.357 186.115 351.618 161.766 351.618ZM161.766 432.636C141.37 432.636 124.836 416.102 124.836 395.706C124.836 375.31 141.37 358.776 161.766 358.776C182.162 358.776 198.696 375.31 198.696 395.706C198.695 416.102 182.161 432.636 161.766 432.636Z" fill="#AB886D"/>
<path d="M169.563 421.753C169.097 421.336 168.788 420.743 168.747 420.07C168.664 418.715 169.695 417.549 171.051 417.466C173.514 417.315 175.947 416.629 178.088 415.48C180.481 414.197 182.042 412.608 182.76 411.775C183.611 410.787 185.383 408.731 186.028 405.684C186.925 401.44 185.056 397.777 184.211 396.399C183.501 395.242 183.864 393.728 185.021 393.018C186.179 392.308 187.694 392.672 188.402 393.828C189.835 396.163 192.056 400.941 190.839 406.701C189.934 410.985 187.517 413.789 186.485 414.986C185.336 416.319 183.35 418.238 180.412 419.814C177.65 421.295 174.516 422.181 171.351 422.374C170.669 422.415 170.035 422.175 169.563 421.753Z" fill="white"/>
<path d="M92.6833 411.277L38.8283 425.995C34.4463 427.16 31.8393 431.657 33.0043 436.038C34.1693 440.42 38.6663 443.027 43.0473 441.861L97.6003 427.352L92.6833 411.277Z" fill="#493628"/>
<path d="M92.645 424.378L44.645 436.913" stroke="#262626" stroke-width="0.5" stroke-miterlimit="10" stroke-linecap="round" stroke-linejoin="round"/>
<path d="M178.288 358.171C174.41 356.428 164.045 352.419 151.745 355.511C146.685 356.783 142.715 358.9 139.904 360.759" stroke="#262626" stroke-width="0.5" stroke-miterlimit="10" stroke-linecap="round" stroke-linejoin="round"/>
<path d="M407.401 138.272C407.852 134.679 408.49 131.821 409.313 129.697C410.136 127.574 411.454 125.698 413.267 124.07C414.318 123.089 415.471 122.275 416.729 121.628C417.984 120.982 419.155 120.278 420.242 119.517C421.326 118.757 422.272 117.87 423.081 116.858C423.888 115.846 424.403 114.458 424.625 112.691C425 109.708 424.439 107.518 422.944 106.124C421.449 104.73 419.574 103.891 417.322 103.608C414.093 103.202 411.758 103.823 410.315 105.465C408.87 107.109 407.805 109.434 407.119 112.44L395.336 110.96C395.711 107.977 396.538 105.328 397.818 103.014C399.097 100.701 400.743 98.804 402.754 97.324C404.764 95.845 407.09 94.807 409.733 94.211C412.374 93.615 415.218 93.508 418.263 93.89C424.84 94.716 429.862 96.708 433.333 99.865C436.802 103.023 438.159 107.616 437.402 113.645C437.157 115.595 436.744 117.274 436.166 118.686C435.586 120.098 434.825 121.348 433.886 122.436C432.945 123.524 431.83 124.513 430.544 125.403C429.256 126.294 427.814 127.194 426.215 128.107C424.745 128.975 423.543 129.798 422.611 130.577C421.678 131.357 420.936 132.208 420.389 133.128C419.84 134.049 419.438 135.036 419.182 136.085C418.925 137.136 418.714 138.332 418.546 139.67L407.401 138.272ZM404.822 155.856L406.325 143.89L418.656 145.439L417.153 157.405L404.822 155.856Z" fill="#493628"/>
<path d="M363.377 114.857C362.913 112.311 362.734 110.225 362.839 108.601C362.944 106.977 363.44 105.415 364.326 103.916C364.832 103.021 365.443 102.219 366.162 101.508C366.879 100.798 367.526 100.067 368.103 99.315C368.679 98.564 369.133 97.756 369.467 96.892C369.8 96.029 369.853 94.972 369.625 93.72C369.24 91.606 368.388 90.233 367.069 89.604C365.75 88.975 364.292 88.806 362.696 89.097C360.408 89.514 358.949 90.438 358.318 91.868C357.686 93.299 357.46 95.113 357.637 97.309L349.286 98.831C348.901 96.717 348.895 94.733 349.272 92.881C349.647 91.03 350.362 89.383 351.415 87.942C352.467 86.502 353.83 85.295 355.504 84.321C357.176 83.348 359.092 82.664 361.25 82.27C365.911 81.421 369.763 81.7 372.807 83.107C375.85 84.515 377.761 87.354 378.54 91.627C378.792 93.009 378.871 94.242 378.78 95.329C378.688 96.416 378.438 97.431 378.031 98.375C377.623 99.319 377.076 100.233 376.39 101.115C375.703 101.999 374.913 102.923 374.019 103.888C373.203 104.795 372.561 105.615 372.092 106.346C371.623 107.078 371.3 107.818 371.125 108.562C370.949 109.308 370.886 110.067 370.937 110.837C370.988 111.608 371.101 112.469 371.274 113.418L363.377 114.857ZM365.395 127.398L363.849 118.918L372.588 117.325L374.134 125.805L365.395 127.398Z" fill="#493628"/>
</svg>
