<svg xmlns="http://www.w3.org/2000/svg" xmlns:xlink="http://www.w3.org/1999/xlink" width="1080" zoomAndPan="magnify" viewBox="0 0 810 809.999993" height="1080" preserveAspectRatio="xMidYMid meet" version="1.0"><path fill="#eddfe0" d="M 809.789062 404.894531 C 809.832031 429.234375 807.6875 453.382812 803.347656 477.332031 C 799.007812 501.285156 792.546875 524.648438 783.964844 547.429688 C 779.523438 559.164062 774.574219 570.699219 769.164062 581.875 C 768.910156 582.335938 768.707031 582.792969 768.449219 583.203125 C 768.09375 583.96875 767.683594 584.734375 767.378906 585.394531 C 760.984375 598.347656 753.890625 610.898438 746.097656 623.058594 C 739.921875 632.652344 733.289062 642.09375 726.347656 651.175781 C 725.582031 652.148438 724.867188 653.117188 724.101562 654.085938 C 719.101562 660.464844 713.898438 666.640625 708.589844 672.613281 L 708.488281 672.714844 C 707.976562 673.324219 707.3125 674.039062 706.75 674.703125 C 703.332031 678.582031 699.8125 682.308594 696.1875 686.03125 L 695.882812 686.339844 C 693.226562 689.144531 690.472656 691.902344 687.71875 694.605469 C 685.523438 696.75 683.328125 698.839844 681.082031 700.933594 C 679.246094 702.71875 677.253906 704.507812 675.417969 706.140625 C 670.316406 710.835938 664.957031 715.324219 659.546875 719.765625 L 659.496094 719.765625 C 650.582031 727.003906 641.375 733.84375 631.875 740.292969 C 622.375 746.746094 612.617188 752.777344 602.601562 758.390625 C 592.585938 764.007812 582.351562 769.183594 571.894531 773.921875 C 561.433594 778.664062 550.792969 782.945312 539.96875 786.777344 C 529.144531 790.605469 518.175781 793.964844 507.0625 796.859375 C 495.953125 799.75 484.738281 802.160156 473.417969 804.09375 C 462.101562 806.027344 450.722656 807.472656 439.277344 808.429688 C 427.835938 809.390625 416.375 809.859375 404.894531 809.839844 C 369.679688 809.851562 335.046875 805.375 300.992188 796.417969 C 291.699219 793.921875 282.503906 791.105469 273.414062 787.960938 C 264.320312 784.816406 255.347656 781.355469 246.5 777.574219 C 237.652344 773.796875 228.949219 769.707031 220.390625 765.3125 C 211.832031 760.917969 203.4375 756.226562 195.210938 751.238281 C 186.984375 746.25 178.945312 740.976562 171.089844 735.417969 C 163.238281 729.859375 155.589844 724.03125 148.148438 717.933594 C 140.707031 711.835938 133.488281 705.480469 126.5 698.871094 C 119.507812 692.261719 112.757812 685.414062 106.25 678.328125 C 105.6875 677.613281 105.128906 677.050781 104.515625 676.386719 C 103.648438 675.46875 102.78125 674.550781 101.964844 673.582031 C 100.484375 671.898438 99.054688 670.210938 97.574219 668.527344 C 85.441406 654.40625 74.335938 639.523438 64.25 623.875 C 64.074219 623.519531 63.855469 623.195312 63.585938 622.90625 C 63.523438 622.726562 63.4375 622.554688 63.332031 622.394531 C 60.523438 618.058594 57.820312 613.667969 55.21875 609.226562 C 50.214844 600.605469 45.46875 591.777344 41.132812 582.792969 C 38.070312 576.617188 35.160156 570.339844 32.457031 563.960938 C 30.109375 558.503906 27.914062 552.992188 25.824219 547.429688 C 17.257812 524.644531 10.808594 501.277344 6.46875 477.328125 C 2.128906 453.378906 -0.0273438 429.234375 0 404.894531 C 0 181.269531 181.269531 0 404.894531 0 C 614.484375 0 786.925781 159.273438 807.695312 363.351562 C 809.113281 377.164062 809.808594 391.011719 809.789062 404.894531 Z M 809.789062 404.894531 " fill-opacity="1" fill-rule="nonzero"/><path fill="#ab886d" d="M 708.488281 672.714844 C 707.976562 673.324219 707.3125 674.039062 706.75 674.703125 C 703.332031 678.582031 699.8125 682.308594 696.1875 686.03125 L 695.882812 686.339844 C 693.226562 689.144531 690.472656 691.902344 687.71875 694.605469 C 685.523438 696.75 683.328125 698.839844 681.082031 700.933594 C 679.246094 702.71875 677.253906 704.507812 675.417969 706.140625 C 670.316406 710.835938 664.957031 715.324219 659.546875 719.765625 L 659.496094 719.765625 C 650.582031 727.003906 641.375 733.84375 631.875 740.292969 C 622.375 746.746094 612.617188 752.777344 602.601562 758.390625 C 592.585938 764.007812 582.351562 769.183594 571.890625 773.921875 C 561.433594 778.664062 550.792969 782.945312 539.96875 786.777344 C 529.144531 790.605469 518.175781 793.964844 507.0625 796.859375 C 495.953125 799.75 484.738281 802.160156 473.417969 804.09375 C 462.101562 806.027344 450.722656 807.472656 439.277344 808.429688 C 427.835938 809.390625 416.375 809.859375 404.894531 809.839844 C 369.679688 809.851562 335.046875 805.375 300.992188 796.417969 C 291.699219 793.921875 282.503906 791.105469 273.414062 787.960938 C 264.320312 784.816406 255.347656 781.355469 246.5 777.574219 C 237.652344 773.796875 228.949219 769.707031 220.390625 765.3125 C 211.832031 760.917969 203.4375 756.226562 195.210938 751.238281 C 186.984375 746.25 178.945312 740.976562 171.089844 735.417969 C 163.238281 729.859375 155.589844 724.03125 148.148438 717.933594 C 140.707031 711.835938 133.488281 705.480469 126.5 698.871094 C 119.507812 692.261719 112.757812 685.414062 106.25 678.328125 C 105.6875 677.613281 105.128906 677.050781 104.515625 676.386719 C 103.648438 675.46875 102.78125 674.550781 101.964844 673.582031 C 106.402344 667.863281 111.300781 661.691406 116.152344 655.515625 C 118.828125 652.125 121.707031 648.910156 124.78125 645.875 C 127.855469 642.839844 131.105469 640.003906 134.535156 637.371094 C 137.960938 634.738281 141.535156 632.328125 145.261719 630.136719 C 148.984375 627.945312 152.832031 625.992188 156.796875 624.277344 C 160.761719 622.5625 164.820312 621.101562 168.96875 619.886719 C 173.113281 618.675781 177.320312 617.722656 181.585938 617.03125 C 185.851562 616.339844 190.144531 615.910156 194.460938 615.75 C 198.78125 615.589844 203.09375 615.695312 207.398438 616.066406 L 239.035156 618.773438 L 239.292969 618.566406 L 303.644531 565.699219 L 323.34375 566.105469 L 496.855469 569.472656 L 516.605469 569.882812 L 583.710938 617.140625 L 583.917969 617.292969 L 591.367188 615.453125 C 593.625 614.886719 595.902344 614.402344 598.195312 614 C 600.488281 613.601562 602.796875 613.28125 605.113281 613.046875 C 607.429688 612.8125 609.75 612.664062 612.078125 612.597656 C 614.40625 612.53125 616.734375 612.550781 619.0625 612.652344 C 621.386719 612.757812 623.707031 612.945312 626.019531 613.214844 C 628.332031 613.488281 630.632812 613.84375 632.921875 614.28125 C 635.207031 614.71875 637.476562 615.238281 639.726562 615.84375 C 641.972656 616.445312 644.199219 617.128906 646.398438 617.894531 C 648.597656 618.65625 650.769531 619.5 652.90625 620.421875 C 655.046875 621.34375 657.148438 622.34375 659.214844 623.417969 C 661.28125 624.492188 663.304688 625.640625 665.285156 626.859375 C 667.269531 628.082031 669.207031 629.375 671.09375 630.734375 C 672.984375 632.097656 674.820312 633.527344 676.605469 635.019531 C 678.390625 636.515625 680.121094 638.074219 681.792969 639.695312 C 683.464844 641.316406 685.078125 642.992188 686.628906 644.730469 C 688.179688 646.46875 689.664062 648.261719 691.085938 650.105469 Z M 708.488281 672.714844 " fill-opacity="1" fill-rule="nonzero"/><path fill="#ffe5b6" d="M 565.507812 342.605469 C 565.507812 347.964844 565.203125 353.304688 564.585938 358.628906 C 564.59375 358.800781 564.578125 358.972656 564.535156 359.136719 L 564.484375 359.597656 L 562.34375 372.917969 L 547.492188 465.492188 L 546.113281 474.0625 C 540.960938 495.855469 522.691406 514.6875 496.867188 526.933594 L 496.867188 590.828125 L 491.152344 718.460938 C 491.109375 719.335938 491.007812 720.207031 490.839844 721.070312 C 490.671875 721.933594 490.441406 722.777344 490.152344 723.609375 C 489.859375 724.4375 489.511719 725.242188 489.101562 726.019531 C 488.695312 726.796875 488.230469 727.542969 487.714844 728.25 C 487.195312 728.960938 486.628906 729.632812 486.015625 730.257812 C 485.398438 730.886719 484.742188 731.464844 484.042969 731.996094 C 483.34375 732.53125 482.609375 733.007812 481.839844 733.433594 C 481.070312 733.855469 480.273438 734.222656 479.449219 734.53125 C 478.628906 734.839844 477.785156 735.085938 476.929688 735.269531 C 476.070312 735.457031 475.199219 735.578125 474.324219 735.636719 C 473.449219 735.695312 472.570312 735.691406 471.695312 735.621094 C 470.820312 735.550781 469.953125 735.417969 469.097656 735.222656 C 468.238281 735.027344 467.402344 734.769531 466.582031 734.449219 C 465.761719 734.132812 464.972656 733.753906 464.207031 733.320312 C 463.445312 732.886719 462.714844 732.398438 462.023438 731.859375 C 461.328125 731.320312 460.679688 730.730469 460.074219 730.09375 L 323.355469 586.589844 L 323.355469 502.386719 C 319.957031 498.667969 317.019531 494.617188 314.535156 490.230469 C 312.054688 485.847656 310.097656 481.242188 308.660156 476.410156 L 308.609375 476.207031 L 303.863281 461.355469 C 303.332031 461.675781 302.789062 461.964844 302.226562 462.226562 C 282.632812 471.820312 255.328125 456.203125 241.246094 427.421875 C 227.210938 398.585938 231.753906 367.457031 251.398438 357.914062 C 269.925781 348.828125 295.339844 362.300781 309.984375 388.125 C 313.097656 374.550781 315.804688 364.039062 316.671875 363.527344 C 375.101562 348.269531 423.378906 299.074219 441.039062 240.691406 C 459.765625 238.496094 478.394531 245.898438 494.671875 255.441406 C 514.675781 267.074219 532.792969 282.285156 546.113281 301.265625 C 553.984375 312.796875 560.414062 325.078125 565.402344 338.113281 C 565.507812 339.59375 565.507812 341.074219 565.507812 342.605469 Z M 565.507812 342.605469 " fill-opacity="1" fill-rule="nonzero"/><path fill="#493628" d="M 496.867188 526.933594 L 496.867188 550.96875 C 487.890625 554.027344 478.71875 556.320312 469.359375 557.84375 C 459.996094 559.367188 450.574219 560.105469 441.089844 560.054688 C 388.730469 560.054688 344.226562 537.855469 327.589844 506.777344 C 349.230469 527.851562 385.71875 541.734375 427.054688 541.734375 C 453.082031 541.734375 477.167969 536.273438 496.867188 526.933594 Z M 564.535156 359.140625 L 564.484375 359.597656 L 562.34375 372.917969 L 561.730469 376.644531 C 563.339844 373.242188 564.839844 369.792969 566.230469 366.300781 C 567.625 362.804688 568.90625 359.269531 570.074219 355.695312 C 571.246094 352.117188 572.300781 348.511719 573.246094 344.867188 C 574.191406 341.226562 575.019531 337.558594 575.730469 333.863281 C 576.445312 330.171875 577.042969 326.457031 577.519531 322.726562 C 578 318.996094 578.363281 315.253906 578.609375 311.5 C 578.855469 307.746094 578.980469 303.988281 578.992188 300.226562 C 579 296.464844 578.890625 292.703125 578.664062 288.949219 C 578.4375 285.195312 578.09375 281.449219 577.628906 277.714844 C 577.167969 273.984375 576.589844 270.265625 575.894531 266.570312 C 575.199219 262.871094 574.386719 259.199219 573.460938 255.554688 C 572.535156 251.910156 571.496094 248.292969 570.34375 244.714844 C 569.191406 241.132812 567.925781 237.589844 566.550781 234.089844 C 565.175781 230.589844 563.691406 227.132812 562.101562 223.726562 C 560.507812 220.316406 558.8125 216.960938 557.007812 213.660156 C 555.203125 210.355469 553.300781 207.117188 551.292969 203.933594 C 549.285156 200.75 547.183594 197.632812 544.980469 194.585938 C 542.777344 191.535156 540.480469 188.554688 538.09375 185.652344 C 535.703125 182.746094 533.226562 179.917969 530.660156 177.167969 C 528.09375 174.414062 525.441406 171.75 522.707031 169.164062 C 519.972656 166.582031 517.160156 164.085938 514.269531 161.679688 C 511.378906 159.269531 508.414062 156.957031 505.378906 154.734375 C 502.339844 152.515625 499.238281 150.390625 496.070312 148.363281 C 492.898438 146.339844 489.667969 144.414062 486.378906 142.589844 C 483.085938 140.765625 479.742188 139.050781 476.34375 137.4375 C 472.945312 135.824219 469.5 134.316406 466.007812 132.921875 C 462.511719 131.523438 458.980469 130.238281 455.40625 129.0625 C 451.832031 127.886719 448.226562 126.824219 444.585938 125.878906 C 440.945312 124.929688 437.277344 124.09375 433.585938 123.378906 C 429.890625 122.660156 426.179688 122.058594 422.449219 121.570312 C 418.71875 121.085938 414.976562 120.71875 411.222656 120.46875 C 407.46875 120.21875 403.710938 120.085938 399.949219 120.074219 C 396.1875 120.058594 392.429688 120.164062 388.671875 120.382812 C 384.917969 120.605469 381.171875 120.945312 377.4375 121.402344 C 373.703125 121.859375 369.988281 122.433594 366.289062 123.125 C 362.59375 123.8125 358.917969 124.621094 355.273438 125.542969 C 351.625 126.460938 348.007812 127.496094 344.425781 128.644531 C 340.84375 129.792969 337.300781 131.050781 333.796875 132.421875 C 330.292969 133.792969 326.835938 135.273438 323.425781 136.859375 C 320.015625 138.449219 316.660156 140.140625 313.355469 141.941406 C 310.050781 143.738281 306.804688 145.640625 303.621094 147.640625 C 300.4375 149.644531 297.316406 151.742188 294.261719 153.941406 C 291.210938 156.140625 288.230469 158.433594 285.320312 160.816406 C 282.410156 163.203125 279.578125 165.675781 276.824219 168.238281 C 274.074219 170.804688 271.402344 173.449219 268.8125 176.179688 C 266.226562 178.910156 263.726562 181.722656 261.316406 184.609375 C 258.90625 187.496094 256.585938 190.457031 254.363281 193.492188 C 252.136719 196.523438 250.007812 199.625 247.980469 202.792969 C 245.949219 205.957031 244.019531 209.1875 242.191406 212.476562 C 240.363281 215.761719 238.640625 219.105469 237.023438 222.5 C 235.40625 225.898438 233.894531 229.339844 232.492188 232.832031 C 231.09375 236.324219 229.800781 239.855469 228.621094 243.429688 C 227.441406 247 226.375 250.605469 225.421875 254.246094 C 224.46875 257.882812 223.628906 261.550781 222.90625 265.242188 C 222.183594 268.933594 221.578125 272.644531 221.085938 276.375 C 220.597656 280.105469 220.222656 283.847656 219.96875 287.601562 C 219.714844 291.351562 219.578125 295.109375 219.558594 298.871094 C 219.539062 302.632812 219.636719 306.394531 219.855469 310.148438 C 220.070312 313.90625 220.40625 317.652344 220.859375 321.386719 C 221.308594 325.121094 221.878906 328.835938 222.5625 332.535156 C 223.25 336.234375 224.050781 339.910156 224.964844 343.558594 C 225.882812 347.207031 226.914062 350.824219 228.054688 354.40625 C 229.199219 357.992188 230.453125 361.535156 231.820312 365.042969 C 233.1875 368.546875 234.660156 372.003906 236.242188 375.417969 C 236.890625 373.542969 237.710938 371.746094 238.699219 370.03125 C 239.691406 368.3125 240.835938 366.703125 242.132812 365.203125 C 243.429688 363.703125 244.859375 362.34375 246.417969 361.117188 C 247.976562 359.890625 249.636719 358.824219 251.398438 357.914062 C 269.925781 348.828125 295.339844 362.300781 309.984375 388.125 C 313.097656 374.550781 315.804688 364.039062 316.671875 363.527344 C 375.101562 348.269531 423.378906 299.074219 441.039062 240.691406 C 459.765625 238.496094 478.394531 245.898438 494.671875 255.441406 C 514.675781 267.074219 532.792969 282.285156 546.113281 301.265625 C 553.984375 312.796875 560.414062 325.078125 565.402344 338.113281 C 565.507812 339.59375 565.507812 341.074219 565.507812 342.605469 C 565.507812 347.964844 565.203125 353.304688 564.585938 358.628906 C 564.59375 358.800781 564.578125 358.972656 564.535156 359.140625 Z M 466.246094 352.757812 C 466.140625 352.371094 465.96875 352.015625 465.730469 351.691406 C 465.492188 351.367188 465.199219 351.097656 464.859375 350.882812 C 464.519531 350.667969 464.152344 350.523438 463.757812 350.445312 C 463.363281 350.367188 462.96875 350.363281 462.570312 350.433594 C 462.175781 350.503906 461.804688 350.644531 461.460938 350.851562 C 461.117188 351.0625 460.820312 351.324219 460.578125 351.644531 C 460.332031 351.960938 460.152344 352.316406 460.039062 352.703125 C 459.925781 353.085938 459.886719 353.480469 459.917969 353.882812 L 465.644531 428.082031 C 465.683594 428.578125 465.671875 429.078125 465.605469 429.574219 C 465.542969 430.066406 465.425781 430.550781 465.261719 431.023438 C 465.097656 431.496094 464.886719 431.945312 464.632812 432.375 C 464.375 432.800781 464.074219 433.199219 463.734375 433.566406 C 463.394531 433.933594 463.023438 434.261719 462.617188 434.550781 C 462.207031 434.839844 461.777344 435.085938 461.316406 435.285156 C 460.859375 435.484375 460.386719 435.636719 459.898438 435.738281 C 459.410156 435.839844 458.914062 435.890625 458.414062 435.890625 L 446.140625 435.890625 C 445.625 435.886719 445.121094 435.960938 444.625 436.109375 C 444.132812 436.261719 443.671875 436.480469 443.242188 436.769531 C 442.8125 437.058594 442.4375 437.402344 442.113281 437.804688 C 441.792969 438.207031 441.535156 438.648438 441.34375 439.128906 C 441.152344 439.609375 441.039062 440.105469 441 440.621094 C 440.957031 441.132812 440.996094 441.644531 441.109375 442.148438 C 441.222656 442.648438 441.410156 443.125 441.664062 443.574219 C 441.921875 444.019531 442.242188 444.421875 442.621094 444.769531 L 456.601562 457.835938 C 456.910156 458.117188 457.242188 458.367188 457.59375 458.585938 C 457.949219 458.804688 458.320312 458.992188 458.707031 459.140625 C 459.097656 459.292969 459.496094 459.40625 459.90625 459.480469 C 460.316406 459.558594 460.726562 459.597656 461.144531 459.597656 C 461.5625 459.597656 461.972656 459.558594 462.382812 459.480469 C 462.792969 459.40625 463.191406 459.292969 463.578125 459.140625 C 463.96875 458.992188 464.339844 458.804688 464.695312 458.585938 C 465.046875 458.367188 465.378906 458.117188 465.6875 457.835938 L 485.203125 439.628906 C 485.808594 439.066406 486.324219 438.433594 486.757812 437.726562 C 487.1875 437.019531 487.515625 436.269531 487.738281 435.476562 C 487.964844 434.679688 488.078125 433.871094 488.078125 433.042969 C 488.082031 432.214844 487.972656 431.40625 487.753906 430.609375 Z M 403.964844 383.148438 C 408.53125 383.148438 412.230469 376.867188 412.230469 369.117188 C 412.230469 361.363281 408.53125 355.082031 403.964844 355.082031 C 399.402344 355.082031 395.703125 361.363281 395.703125 369.117188 C 395.703125 376.867188 399.402344 383.148438 403.964844 383.148438 Z M 505.128906 383.148438 C 509.695312 383.148438 513.394531 376.867188 513.394531 369.117188 C 513.394531 361.363281 509.695312 355.082031 505.128906 355.082031 C 500.566406 355.082031 496.867188 361.363281 496.867188 369.117188 C 496.867188 376.867188 500.566406 383.148438 505.128906 383.148438 Z M 323.355469 550.226562 L 303.632812 565.683594 L 323.355469 586.589844 Z M 496.867188 590.785156 L 516.59375 569.878906 L 496.867188 554.421875 Z M 433.085938 83.910156 C 432.894531 83.082031 432.65625 82.261719 432.382812 81.453125 C 432.109375 80.644531 431.792969 79.851562 431.441406 79.074219 C 431.085938 78.300781 430.695312 77.542969 430.269531 76.800781 C 429.839844 76.0625 429.378906 75.347656 428.878906 74.65625 C 428.382812 73.960938 427.851562 73.292969 427.289062 72.652344 C 426.726562 72.011719 426.132812 71.402344 425.507812 70.816406 C 424.882812 70.234375 424.234375 69.683594 423.554688 69.164062 C 422.878906 68.648438 422.175781 68.164062 421.449219 67.714844 C 420.726562 67.261719 419.980469 66.851562 419.214844 66.472656 C 418.449219 66.097656 417.664062 65.757812 416.867188 65.460938 C 416.066406 65.160156 415.253906 64.902344 414.429688 64.679688 C 413.605469 64.460938 412.773438 64.28125 411.929688 64.144531 C 411.085938 64.007812 410.238281 63.910156 409.386719 63.855469 C 408.535156 63.800781 407.683594 63.789062 406.832031 63.820312 C 405.976562 63.847656 405.128906 63.917969 404.28125 64.03125 C 403.4375 64.144531 402.597656 64.300781 401.765625 64.496094 L 368.492188 72.3125 L 327.875 81.828125 L 303.027344 87.648438 C 302.199219 87.84375 301.378906 88.078125 300.570312 88.355469 C 299.761719 88.628906 298.96875 88.945312 298.191406 89.296875 C 297.414062 89.652344 296.65625 90.042969 295.917969 90.46875 C 295.179688 90.898438 294.460938 91.363281 293.769531 91.859375 C 293.074219 92.359375 292.40625 92.890625 291.765625 93.453125 C 291.125 94.015625 290.511719 94.609375 289.929688 95.234375 C 289.347656 95.859375 288.796875 96.511719 288.277344 97.1875 C 287.757812 97.867188 287.273438 98.570312 286.824219 99.292969 C 286.375 100.019531 285.960938 100.765625 285.585938 101.53125 C 285.207031 102.300781 284.871094 103.082031 284.570312 103.882812 C 284.269531 104.679688 284.011719 105.492188 283.789062 106.320312 C 283.570312 107.144531 283.390625 107.976562 283.253906 108.820312 C 283.113281 109.664062 283.019531 110.511719 282.964844 111.363281 C 282.910156 112.214844 282.894531 113.066406 282.925781 113.921875 C 282.953125 114.773438 283.023438 115.625 283.136719 116.472656 C 283.25 117.316406 283.402344 118.15625 283.597656 118.988281 C 283.792969 119.820312 284.027344 120.640625 284.304688 121.445312 C 284.578125 122.253906 284.894531 123.046875 285.246094 123.824219 C 285.601562 124.601562 285.992188 125.359375 286.417969 126.101562 C 286.847656 126.839844 287.308594 127.554688 287.808594 128.25 C 288.304688 128.941406 288.835938 129.609375 289.398438 130.25 C 289.964844 130.894531 290.558594 131.503906 291.179688 132.089844 C 291.804688 132.671875 292.457031 133.222656 293.132812 133.742188 C 293.8125 134.261719 294.511719 134.746094 295.238281 135.195312 C 295.964844 135.644531 296.710938 136.058594 297.476562 136.4375 C 298.242188 136.8125 299.027344 137.152344 299.824219 137.453125 C 300.625 137.753906 301.4375 138.011719 302.261719 138.234375 C 303.085938 138.453125 303.921875 138.632812 304.765625 138.769531 C 305.605469 138.910156 306.453125 139.003906 307.304688 139.0625 C 308.15625 139.117188 309.011719 139.128906 309.863281 139.101562 C 310.71875 139.070312 311.566406 139 312.414062 138.890625 C 313.261719 138.777344 314.101562 138.625 314.929688 138.429688 L 339.867188 132.5625 L 378.613281 123.484375 L 413.667969 115.230469 C 415.089844 114.894531 416.46875 114.445312 417.8125 113.878906 C 419.15625 113.3125 420.445312 112.636719 421.675781 111.855469 C 422.90625 111.070312 424.0625 110.191406 425.144531 109.214844 C 426.226562 108.238281 427.222656 107.179688 428.128906 106.039062 C 429.035156 104.894531 429.839844 103.683594 430.542969 102.40625 C 431.246094 101.128906 431.839844 99.804688 432.320312 98.425781 C 432.800781 97.050781 433.164062 95.644531 433.410156 94.207031 C 433.65625 92.769531 433.777344 91.320312 433.78125 89.863281 C 433.785156 87.851562 433.554688 85.867188 433.085938 83.910156 Z M 258.945312 371.003906 C 257.929688 371.269531 256.9375 371.609375 255.976562 372.027344 C 255.011719 372.441406 254.085938 372.929688 253.199219 373.492188 C 252.308594 374.050781 251.472656 374.675781 250.679688 375.367188 C 249.890625 376.054688 249.15625 376.804688 248.480469 377.605469 C 247.804688 378.410156 247.195312 379.261719 246.652344 380.160156 C 246.109375 381.058594 245.636719 381.992188 245.238281 382.964844 C 244.839844 383.933594 244.519531 384.929688 244.273438 385.953125 C 244.03125 386.972656 243.867188 388.007812 243.78125 389.050781 C 246.691406 386.617188 249.835938 384.53125 253.214844 382.800781 C 256.589844 381.070312 260.117188 379.730469 263.792969 378.789062 C 268.9375 377.375 274.171875 376.738281 279.503906 376.875 C 278.871094 376.183594 278.191406 375.535156 277.46875 374.9375 C 276.742188 374.339844 275.980469 373.792969 275.183594 373.300781 C 274.382812 372.808594 273.554688 372.371094 272.695312 371.992188 C 271.835938 371.613281 270.957031 371.296875 270.054688 371.039062 C 269.148438 370.78125 268.234375 370.585938 267.304688 370.453125 C 266.375 370.324219 265.441406 370.253906 264.5 370.253906 C 263.5625 370.25 262.628906 370.3125 261.695312 370.4375 C 260.765625 370.5625 259.847656 370.753906 258.945312 371.003906 Z M 258.945312 371.003906 " fill-opacity="1" fill-rule="nonzero"/><path fill="#ffde59" d="M 309.015625 457.476562 C 305.929688 452.726562 302.023438 448.785156 297.304688 445.65625 C 296.535156 445.15625 295.695312 444.886719 294.777344 444.847656 C 293.863281 444.8125 293.003906 445.011719 292.195312 445.449219 C 291.390625 445.882812 290.75 446.496094 290.28125 447.28125 C 289.8125 448.070312 289.574219 448.921875 289.574219 449.835938 C 289.59375 450.699219 289.8125 451.503906 290.238281 452.253906 C 290.660156 453.007812 291.238281 453.613281 291.964844 454.074219 C 295.425781 456.441406 298.25 459.414062 300.441406 462.988281 C 301.84375 465.332031 303.011719 467.789062 303.941406 470.355469 C 304.875 472.921875 305.554688 475.554688 305.984375 478.25 C 306.410156 480.949219 306.582031 483.660156 306.488281 486.390625 C 306.398438 489.117188 306.050781 491.816406 305.445312 494.476562 C 301.15625 515.554688 283.957031 529.792969 267.015625 526.320312 C 250.125 522.902344 239.917969 503 244.203125 481.972656 C 246.757812 469.625 253.695312 459.671875 262.371094 454.210938 C 260 452.363281 257.789062 450.339844 255.738281 448.140625 C 244.101562 456.714844 235.121094 471.460938 232.058594 489.273438 C 226.800781 520.25 241.652344 548.625 265.230469 552.65625 C 288.859375 556.6875 312.28125 534.894531 317.589844 503.917969 C 320.601562 486.210938 317.078125 469.421875 309.015625 457.476562 Z M 574.488281 486.058594 C 570.40625 469.777344 561.371094 456.457031 550.246094 448.445312 L 548.257812 460.644531 C 551.121094 463.65625 553.515625 467.007812 555.441406 470.695312 C 557.367188 474.378906 558.746094 478.257812 559.585938 482.332031 C 564.128906 503.355469 554.125 523.3125 537.234375 526.933594 C 528.046875 528.925781 518.710938 525.660156 511.359375 518.820312 C 507.105469 521.585938 502.699219 524.085938 498.144531 526.320312 C 509.421875 545.40625 528.355469 556.226562 546.164062 551.789062 C 569.4375 545.917969 582.089844 516.574219 574.488281 486.058594 Z M 378.613281 123.484375 L 339.867188 132.5625 C 336.277344 127.605469 333.40625 122.265625 331.246094 116.539062 C 329.085938 110.8125 327.71875 104.902344 327.136719 98.8125 C 326.621094 93.117188 326.867188 87.457031 327.875 81.828125 L 368.492188 72.3125 C 360.972656 82.164062 365.886719 109.144531 378.613281 123.484375 Z M 464.5 733.492188 L 464.5 733.542969 L 239.292969 618.566406 L 303.644531 565.699219 L 323.34375 586.570312 L 460.058594 730.074219 C 461.351562 731.457031 462.832031 732.597656 464.5 733.492188 Z M 583.710938 617.140625 L 488.230469 727.574219 C 490.050781 724.800781 491.023438 721.753906 491.140625 718.4375 L 496.855469 590.804688 L 516.605469 569.882812 Z M 583.710938 617.140625 " fill-opacity="1" fill-rule="nonzero"/></svg>