<svg width="500" height="500" viewBox="0 0 500 500" fill="none" xmlns="http://www.w3.org/2000/svg">
<circle cx="250" cy="250" r="250" fill="#F3EEEA"/>
<path fill-rule="evenodd" clip-rule="evenodd" d="M246.738 199.863C248.263 198.337 250.737 198.337 252.262 199.863L275.7 223.3C277.225 224.826 277.225 227.299 275.7 228.825C274.174 230.35 271.701 230.35 270.175 228.825L253.406 212.056L253.406 272.938C253.406 275.095 251.657 276.844 249.5 276.844C247.343 276.844 245.594 275.095 245.594 272.938L245.594 212.056L228.825 228.825C227.299 230.35 224.826 230.35 223.3 228.825C221.775 227.299 221.775 224.826 223.3 223.3L246.738 199.863ZM202.625 269.031C204.782 269.031 206.531 270.78 206.531 272.938V284.656C206.531 288.971 210.029 292.469 214.344 292.469H284.656C288.971 292.469 292.469 288.971 292.469 284.656V272.938C292.469 270.78 294.218 269.031 296.375 269.031C298.532 269.031 300.281 270.78 300.281 272.938V284.656C300.281 293.286 293.286 300.281 284.656 300.281H214.344C205.714 300.281 198.719 293.286 198.719 284.656V272.938C198.719 270.78 200.468 269.031 202.625 269.031Z" fill="#493628"/>
</svg>
